<svg xmlns="http://www.w3.org/2000/svg" version="1.1" xmlns:xlink="http://www.w3.org/1999/xlink" xmlns:svgjs="http://svgjs.dev/svgjs" viewBox="0 0 800 800" opacity="0.23"><defs><filter id="bbburst-blur-1" x="-100%" y="-100%" width="400%" height="400%"><feGaussianBlur in="SourceGraphic" stdDeviation="1"></feGaussianBlur></filter><filter id="bbburst-blur-2" x="-100%" y="-100%" width="400%" height="400%"><feGaussianBlur in="SourceGraphic" stdDeviation="2"></feGaussianBlur></filter><filter id="bbburst-blur-3" x="-100%" y="-100%" width="400%" height="400%"><feGaussianBlur in="SourceGraphic" stdDeviation="4"></feGaussianBlur></filter><filter id="bbburst-blur-4" x="-100%" y="-100%" width="400%" height="400%"><feGaussianBlur in="SourceGraphic" stdDeviation="12"></feGaussianBlur></filter><symbol id="bbburst-shape-1" viewBox="0 0 194 167"><path d="m97 0 96.129 166.5H.871L97 0Z"></path></symbol><symbol id="bbburst-shape-2" viewBox="0 0 126 115"><path d="m63 0 62.77 43.877-23.976 70.996H24.206L.23 43.877 63 0Z"></path></symbol><symbol id="bbburst-shape-9" viewBox="0 0 182 172"><path d="M13.5809 69.845 91 13.5967l77.419 56.2483-29.571 91.012H43.1524L13.5809 69.845Z" stroke-width="22"></path></symbol><symbol id="bbburst-shape-10" viewBox="0 0 145 145"><circle cx="72.5" cy="72.5" r="61.5" fill="none" stroke-width="22"></circle></symbol><symbol id="bbburst-shape-11" viewBox="0 0 194 167"><path d="M10.398 161 97 11l86.603 150H10.397Z" stroke-width="11"></path></symbol></defs><use xlink:href="#bbburst-shape-9" width="42.25628865576589" opacity="-0.09064989490617292" transform="matrix(1.254293246872369,-1.220347676217876,1.220347676217876,1.254293246872369,-456.6815361486948,276.0192751179328)" fill="none" stroke="#ffa6d5" filter="url(#bbburst-blur-4)"></use><use xlink:href="#bbburst-shape-10" width="9.691797860584314" opacity="0.8150066956040138" transform="matrix(0.8838227168312585,-0.46782198025853083,0.46782198025853083,0.8838227168312585,291.83384067184573,48.24868998481901)" fill="none" stroke="#00a19d"></use><use xlink:href="#bbburst-shape-9" width="20.937128154538275" opacity="0.5009673010816154" transform="matrix(0.9542272477855323,-0.29908252971988936,0.29908252971988936,0.9542272477855323,55.13754875706627,85.48632343401425)" fill="none" stroke="#ffa6d5" filter="url(#bbburst-blur-2)"></use><use xlink:href="#bbburst-shape-2" width="18.541274494357772" opacity="0.7237767529122978" transform="matrix(0.7275585214612207,-0.6860456237373449,0.6860456237373449,0.7275585214612207,40.64594150585674,211.96537086984256)" fill="#00a19d" filter="url(#bbburst-blur-1)"></use><use xlink:href="#bbburst-shape-1" width="30.925775224682127" opacity="0.15649737310321565" transform="matrix(1.2445052266177976,-0.11707579135322595,0.11707579135322595,1.2445052266177976,441.5254198847142,-459.9496474328866)" fill="#ff5c58" filter="url(#bbburst-blur-3)"></use><use xlink:href="#bbburst-shape-11" width="34.86942991251248" opacity="0.3216703927055057" transform="matrix(1.0729229032423282,0.6413551619017763,-0.6413551619017763,1.0729229032423282,413.8087977886531,-247.8576348862372)" fill="none" stroke="#00a19d" filter="url(#bbburst-blur-3)"></use><use xlink:href="#bbburst-shape-10" width="9.274774083400073" opacity="0.8734803241337806" transform="matrix(0.955784416831684,0.294068271905892,-0.294068271905892,0.955784416831684,456.87538771815275,24.66330369003225)" fill="none" stroke="#ffbd9b"></use><use xlink:href="#bbburst-shape-11" width="19.941906010598633" opacity="0.6384234958466068" transform="matrix(0.848568762815818,-0.529085111086328,0.529085111086328,0.848568762815818,214.82866197423974,224.51720367161386)" fill="none" stroke="#ffa6d5" filter="url(#bbburst-blur-1)"></use><use xlink:href="#bbburst-shape-1" width="26.850320388357737" opacity="0.48105311866615363" transform="matrix(0.7398642758202092,0.6727561618930274,-0.6727561618930274,0.7398642758202092,433.7464321587115,33.98008962457084)" fill="#2c2891" filter="url(#bbburst-blur-2)"></use><use xlink:href="#bbburst-shape-11" width="19.588012886391567" opacity="0.45013728091505467" transform="matrix(0.9963151346446065,-0.08576801547255015,0.08576801547255015,0.9963151346446065,108.48938637047284,4.729672387350206)" fill="none" stroke="#2c2891" filter="url(#bbburst-blur-2)"></use><use xlink:href="#bbburst-shape-9" width="7.689837665748881" opacity="0.9116457744547314" transform="matrix(0.8912156382724157,0.45357985636345316,-0.45357985636345316,0.8912156382724157,541.4137770694078,57.220343399645685)" fill="none" stroke="#ffa6d5"></use><use xlink:href="#bbburst-shape-1" width="14.70003251107434" opacity="0.72256593674214" transform="matrix(0.9964967058097268,0.08363202323489913,-0.08363202323489913,0.9964967058097268,306.8082864023521,-35.928777724703934)" fill="#ffbd9b" filter="url(#bbburst-blur-1)"></use><use xlink:href="#bbburst-shape-2" width="12.898734349787267" opacity="0.800700147492767" transform="matrix(0.9112774762326753,0.4117928621418856,-0.4117928621418856,0.9112774762326753,604.413848934272,-44.401832946516265)" fill="#2c2891"></use><use xlink:href="#bbburst-shape-2" width="32.50989406814106" opacity="0.32303738469623633" transform="matrix(1.1829707503317841,-0.40383190049754075,0.40383190049754075,1.1829707503317841,115.59957853085561,-353.0641645452651)" fill="#ff5c58" filter="url(#bbburst-blur-3)"></use><use xlink:href="#bbburst-shape-1" width="33.11611706888435" opacity="0.29391939439994275" transform="matrix(1.1136199450158824,-0.5677592958841124,0.5677592958841124,1.1136199450158824,-24.064595116459827,-298.8259686422871)" fill="#2c2891" filter="url(#bbburst-blur-3)"></use><use xlink:href="#bbburst-shape-2" width="7.605967048427104" opacity="0.9684657319956596" transform="matrix(0.9120586886548523,0.410059688885888,-0.410059688885888,0.9120586886548523,555.3820768803427,46.83501859847581)" fill="#2c2891"></use><use xlink:href="#bbburst-shape-1" width="6.470590009330873" opacity="0.9157882982816419" transform="matrix(0.9964766045591714,0.08387119032316528,-0.08387119032316528,0.9964766045591714,398.22515100045877,-18.996233534554335)" fill="#00a19d"></use><use xlink:href="#bbburst-shape-11" width="8.906476593441047" opacity="0.8458970135407426" transform="matrix(0.8492882171968281,0.5279294688977244,-0.5279294688977244,0.8492882171968281,626.0072728481277,124.6535569529251)" fill="none" stroke="#ff5c58"></use><use xlink:href="#bbburst-shape-11" width="8.138812018159816" opacity="0.9445849818494538" transform="matrix(0.9976427778727558,0.0686213360284625,-0.0686213360284625,0.9976427778727558,444.92237971186603,-12.028828976047691)" fill="none" stroke="#00a19d"></use><use xlink:href="#bbburst-shape-10" width="16.56013356573602" opacity="0.7256196323199915" transform="matrix(0.974296332732885,-0.22527018449686492,0.22527018449686492,0.974296332732885,422.6530465466836,-13.262737487862012)" fill="none" stroke="#ff5c58" filter="url(#bbburst-blur-1)"></use><use xlink:href="#bbburst-shape-9" width="29.987676118055887" opacity="0.06990754811277111" transform="matrix(1.506125541752734,-0.891114949083469,0.891114949083469,1.506125541752734,-188.66637811708586,172.96627814969338)" fill="none" stroke="#ffa6d5" filter="url(#bbburst-blur-4)"></use><use xlink:href="#bbburst-shape-11" width="8.944912683484255" opacity="0.8537853881642877" transform="matrix(0.8157599682686743,0.5783905896280571,-0.5783905896280571,0.8157599682686743,678.2001876652344,113.281392497257)" fill="none" stroke="#2c2891"></use><use xlink:href="#bbburst-shape-9" width="23.998113196792712" opacity="0.5660709165431312" transform="matrix(0.9104885044132743,-0.41353437986614716,0.41353437986614716,0.9104885044132743,28.360259404854844,44.26252944428438)" fill="none" stroke="#ffa6d5" filter="url(#bbburst-blur-1)"></use><use xlink:href="#bbburst-shape-2" width="9.12878533173446" opacity="0.9386059739713866" transform="matrix(0.7840005573100342,-0.6207601196416824,0.6207601196416824,0.7840005573100342,156.121409095124,115.68013878664595)" fill="#ffa6d5"></use><use xlink:href="#bbburst-shape-2" width="7.796118237735361" opacity="0.8335145550287776" transform="matrix(0.9783512294714831,0.2069513754282329,-0.2069513754282329,0.9783512294714831,410.635611683423,-22.863440654152896)" fill="#ffa6d5"></use><use xlink:href="#bbburst-shape-10" width="28.469670748004887" opacity="0.6042433769177618" transform="matrix(0.9268915397433984,0.3753292868297278,-0.3753292868297278,0.9268915397433984,619.0024654862589,-134.15496133002)" fill="none" stroke="#00a19d" filter="url(#bbburst-blur-1)"></use><use xlink:href="#bbburst-shape-2" width="27.379490962839153" opacity="0.3225829089072231" transform="matrix(1.1372744420093495,-0.5187550901459406,0.5187550901459406,1.1372744420093495,-127.72383583000718,-58.200681512354095)" fill="#2c2891" filter="url(#bbburst-blur-3)"></use><use xlink:href="#bbburst-shape-2" width="32.680730537678805" opacity="0.07088963083554822" transform="matrix(1.5788013635378308,-0.7549081099651045,0.7549081099651045,1.5788013635378308,409.5396218185168,27.911241487271354)" fill="#ffa6d5" filter="url(#bbburst-blur-4)"></use><use xlink:href="#bbburst-shape-1" width="10.150909821940555" opacity="0.8256598606133737" transform="matrix(0.9767331504537899,-0.2144582775381125,0.2144582775381125,0.9767331504537899,300.46472863961617,-67.55026525684087)" fill="#ffa6d5"></use><use xlink:href="#bbburst-shape-11" width="20.766367381753653" opacity="0.516785309255545" transform="matrix(0.9795470757458856,0.20121512467427546,-0.20121512467427546,0.9795470757458856,651.1190801225395,-115.05223191528802)" fill="none" stroke="#ff5c58" filter="url(#bbburst-blur-2)"></use><use xlink:href="#bbburst-shape-11" width="16.84581378232237" opacity="0.6082602656962732" transform="matrix(0.9694928681063572,0.24511951919606387,-0.24511951919606387,0.9694928681063572,463.64288216755125,184.23891381152384)" fill="none" stroke="#ffa6d5" filter="url(#bbburst-blur-1)"></use><use xlink:href="#bbburst-shape-10" width="23.562391285291156" opacity="0.49481382697589205" transform="matrix(0.7694435963708162,0.638714765763204,-0.638714765763204,0.7694435963708162,465.00932384796124,221.70311100578573)" fill="none" stroke="#2c2891" filter="url(#bbburst-blur-2)"></use><use xlink:href="#bbburst-shape-9" width="10.510165879269145" opacity="0.9147289293583366" transform="matrix(0.9353466458999471,-0.35373245822756916,0.35373245822756916,0.9353466458999471,285.381304397066,49.10705668681726)" fill="none" stroke="#00a19d"></use><use xlink:href="#bbburst-shape-1" width="34.44076069729209" opacity="0.18398170485009468" transform="matrix(1.1967631528225022,-0.3609126709418,0.3609126709418,1.1967631528225022,-130.23790200393074,-34.856172030257596)" fill="#2c2891" filter="url(#bbburst-blur-3)"></use><use xlink:href="#bbburst-shape-10" width="6.805278609742263" opacity="0.9315473091791241" transform="matrix(0.918908040438506,0.39447181549188637,-0.39447181549188637,0.918908040438506,533.8555516555521,53.809286244061184)" fill="none" stroke="#00a19d"></use><use xlink:href="#bbburst-shape-11" width="17.161232925989726" opacity="0.6423025628737133" transform="matrix(0.9436790524300596,-0.33086227649084593,0.33086227649084593,0.9436790524300596,284.09899490301194,-133.91202513310324)" fill="none" stroke="#2c2891" filter="url(#bbburst-blur-1)"></use><use xlink:href="#bbburst-shape-1" width="41.106842000543686" opacity="0.03278543293367542" transform="matrix(1.5417422206136546,-0.8279679493659626,0.8279679493659626,1.5417422206136546,-322.5376325642281,-444.6506706502666)" fill="#ffbd9b" filter="url(#bbburst-blur-4)"></use><use xlink:href="#bbburst-shape-2" width="8.151431139840176" opacity="0.8927246209651245" transform="matrix(0.9869294475154861,0.16115292621227045,-0.16115292621227045,0.9869294475154861,481.27311865364453,48.12167730643017)" fill="#ffa6d5"></use><use xlink:href="#bbburst-shape-2" width="12.136963103171338" opacity="0.7661289604494277" transform="matrix(0.9989218111243766,0.046424296009689434,-0.046424296009689434,0.9989218111243766,492.10820691410714,69.00036856616458)" fill="#ff5c58" filter="url(#bbburst-blur-1)"></use><use xlink:href="#bbburst-shape-9" width="21.271228518653054" opacity="0.5528889689742367" transform="matrix(0.9999111568346061,0.013329607559104254,-0.013329607559104254,0.9999111568346061,220.64199734181318,-101.17308663531628)" fill="none" stroke="#ffa6d5" filter="url(#bbburst-blur-2)"></use><use xlink:href="#bbburst-shape-2" width="28.044410701896677" opacity="0.5075791541196344" transform="matrix(0.7233696850515359,-0.6904609320942364,0.6904609320942364,0.7233696850515359,200.642841771061,324.15701188856997)" fill="#2c2891" filter="url(#bbburst-blur-2)"></use><use xlink:href="#bbburst-shape-10" width="27.504492745524626" opacity="0.27087872089661713" transform="matrix(1.2308179581068959,0.21814480053755994,-0.21814480053755994,1.2308179581068959,366.9904214583456,216.07812371657838)" fill="none" stroke="#2c2891" filter="url(#bbburst-blur-3)"></use><use xlink:href="#bbburst-shape-11" width="24.04519921253464" opacity="0.5829721710776776" transform="matrix(0.9235986881411132,0.3833607482046311,-0.3833607482046311,0.9235986881411132,690.4160633508877,140.97509107996643)" fill="none" stroke="#ffa6d5" filter="url(#bbburst-blur-1)"></use><use xlink:href="#bbburst-shape-2" width="20.10350726114784" opacity="0.5129000027205962" transform="matrix(0.7595599441279599,0.6504373077217591,-0.6504373077217591,0.7595599441279599,704.3624636290423,-123.33365332082056)" fill="#00a19d" filter="url(#bbburst-blur-2)"></use><use xlink:href="#bbburst-shape-11" width="32.70271469293611" opacity="0.021081426752527888" transform="matrix(1.4262444118640671,1.0140645332652756,-1.0140645332652756,1.4262444118640671,530.5072910816302,-548.837503773801)" fill="none" stroke="#ffbd9b" filter="url(#bbburst-blur-4)"></use><use xlink:href="#bbburst-shape-10" width="26.789071285397913" opacity="0.39858976890187836" transform="matrix(0.9245433015180531,0.3810770048403581,-0.3810770048403581,0.9245433015180531,810.6815296237338,24.942491861934116)" fill="none" stroke="#ffbd9b" filter="url(#bbburst-blur-2)"></use><use xlink:href="#bbburst-shape-9" width="15.775761581033194" opacity="0.7159139605374993" transform="matrix(0.7652055442726536,0.643786047545605,-0.643786047545605,0.7652055442726536,696.2369457452554,-31.014607593502944)" fill="none" stroke="#ffa6d5" filter="url(#bbburst-blur-1)"></use><use xlink:href="#bbburst-shape-2" width="35.170562448076154" opacity="0.28186480722907026" transform="matrix(1.139136797634859,0.5146526559478717,-0.5146526559478717,1.139136797634859,904.7279107950565,-116.93989190765006)" fill="#2c2891" filter="url(#bbburst-blur-3)"></use><use xlink:href="#bbburst-shape-10" width="16.318934043854167" opacity="0.7333780238120605" transform="matrix(0.9031356409251279,0.42935534710861395,-0.42935534710861395,0.9031356409251279,622.8921947064023,139.9834707560804)" fill="none" stroke="#00a19d" filter="url(#bbburst-blur-1)"></use><use xlink:href="#bbburst-shape-2" width="7.278241430506302" opacity="0.9134312663640013" transform="matrix(0.9995753492486904,0.029139683841088705,-0.029139683841088705,0.9995753492486904,398.12966592524276,37.74746668711697)" fill="#2c2891"></use><use xlink:href="#bbburst-shape-11" width="30.840315575016795" opacity="0.3288999554916888" transform="matrix(1.1451510249223313,-0.5011278580555405,0.5011278580555405,1.1451510249223313,-111.91087334527563,19.91384804353976)" fill="none" stroke="#00a19d" filter="url(#bbburst-blur-3)"></use><use xlink:href="#bbburst-shape-11" width="28.858530170516207" opacity="0.3417385868850563" transform="matrix(0.9365727513954095,-0.3504732248598063,0.3504732248598063,0.9365727513954095,461.0479838820944,-173.80943053450395)" fill="none" stroke="#ffbd9b" filter="url(#bbburst-blur-2)"></use><use xlink:href="#bbburst-shape-2" width="34.51694300068582" opacity="0.38877645978825537" transform="matrix(0.9820590189893555,-0.18857381372201348,0.18857381372201348,0.9820590189893555,61.54098599213923,133.31178105936397)" fill="#00a19d" filter="url(#bbburst-blur-2)"></use><use xlink:href="#bbburst-shape-9" width="38.10737040662554" opacity="0.307407914484368" transform="matrix(1.1920545038117143,-0.3761729122919511,0.3761729122919511,1.1920545038117143,477.0147870443842,115.75182591707409)" fill="none" stroke="#ffa6d5" filter="url(#bbburst-blur-3)"></use><use xlink:href="#bbburst-shape-1" width="32.699277854307205" opacity="0.41652056833651896" transform="matrix(0.9999560223489746,0.009378345697244597,-0.009378345697244597,0.9999560223489746,402.4309855526225,-262.2288691003756)" fill="#ff5c58" filter="url(#bbburst-blur-2)"></use><use xlink:href="#bbburst-shape-9" width="42.370399644405865" opacity="0.14071577970234217" transform="matrix(1.2478745211688733,-0.07286411611729966,0.07286411611729966,1.2478745211688733,609.9581424940172,-379.02684741486604)" fill="none" stroke="#2c2891" filter="url(#bbburst-blur-3)"></use><use xlink:href="#bbburst-shape-2" width="34.942046958478336" opacity="0.2704973719478103" transform="matrix(1.2430923778280387,0.1312301039618296,-0.1312301039618296,1.2430923778280387,597.5309207376418,-382.27376702650656)" fill="#2c2891" filter="url(#bbburst-blur-3)"></use><use xlink:href="#bbburst-shape-9" width="28.866904449889837" opacity="0.06763888211366176" transform="matrix(1.5727041185303687,-0.7675296447418926,0.7675296447418926,1.5727041185303687,284.41170869250493,-579.0311034215524)" fill="none" stroke="#2c2891" filter="url(#bbburst-blur-4)"></use><use xlink:href="#bbburst-shape-10" width="39.37446840411776" opacity="0.13602608163495677" transform="matrix(0.935837139246119,-0.8286789781378794,0.8286789781378794,0.935837139246119,-221.4842853100456,-236.22168093176992)" fill="none" stroke="#00a19d" filter="url(#bbburst-blur-3)"></use><use xlink:href="#bbburst-shape-10" width="11.025854818720486" opacity="0.8148388450531406" transform="matrix(0.9676524613555533,-0.25228696762325936,0.25228696762325936,0.9676524613555533,339.1296170653924,84.2110923253843)" fill="none" stroke="#ffa6d5"></use><use xlink:href="#bbburst-shape-10" width="8.58999186037434" opacity="0.9141572339186483" transform="matrix(0.8996524099043679,0.43660684986983794,-0.43660684986983794,0.8996524099043679,532.2705679491821,35.20776286882125)" fill="none" stroke="#2c2891"></use><use xlink:href="#bbburst-shape-11" width="11.68948268464708" opacity="0.892151453275924" transform="matrix(0.7568579319286782,0.6535794296614943,-0.6535794296614943,0.7568579319286782,698.1547068500655,67.43089550727012)" fill="none" stroke="#00a19d"></use><use xlink:href="#bbburst-shape-11" width="16.331836067597916" opacity="0.6483194484268293" transform="matrix(0.8809579492173367,0.47319456010269645,-0.47319456010269645,0.8809579492173367,739.6094215316616,59.75836851810334)" fill="none" stroke="#ffa6d5" filter="url(#bbburst-blur-1)"></use><use xlink:href="#bbburst-shape-2" width="11.77767655072298" opacity="0.8341646727136618" transform="matrix(0.9471069050077447,0.32091823021861937,-0.32091823021861937,0.9471069050077447,593.386033375157,-4.912606116595612)" fill="#00a19d"></use><use xlink:href="#bbburst-shape-10" width="27.12066431138333" opacity="0.1564739186567442" transform="matrix(1.189721709160694,0.38348696816418293,-0.38348696816418293,1.189721709160694,460.2176676291216,290.5968542176922)" fill="none" stroke="#ff5c58" filter="url(#bbburst-blur-3)"></use><use xlink:href="#bbburst-shape-9" width="27.309170864129385" opacity="0.1645504813499904" transform="matrix(0.9594301607844637,-0.8012451351347463,0.8012451351347463,0.9594301607844637,141.08280951556304,395.42210299369236)" fill="none" stroke="#ffa6d5" filter="url(#bbburst-blur-3)"></use><use xlink:href="#bbburst-shape-10" width="6.795533864793424" opacity="0.9299170880915766" transform="matrix(0.986324909300779,-0.16481253985304095,0.16481253985304095,0.986324909300779,320.2437138618746,-23.715089609299525)" fill="none" stroke="#ffa6d5"></use><use xlink:href="#bbburst-shape-11" width="9.92956646892724" opacity="0.7850760617743842" transform="matrix(0.9267574604701632,-0.37566023140983923,0.37566023140983923,0.9267574604701632,149.64900131854162,15.372223215785311)" fill="none" stroke="#ffa6d5"></use><use xlink:href="#bbburst-shape-10" width="11.367348045655708" opacity="0.8579041987443475" transform="matrix(0.8739434939084713,0.48602753981132985,-0.48602753981132985,0.8739434939084713,609.8808239593732,-12.929002978356266)" fill="none" stroke="#2c2891"></use><use xlink:href="#bbburst-shape-1" width="14.52894600022693" opacity="0.7942463672263292" transform="matrix(0.9736825344417351,-0.2279085828202159,0.2279085828202159,0.9736825344417351,386.884038017306,48.64167579245225)" fill="#2c2891"></use><use xlink:href="#bbburst-shape-1" width="15.203155871578376" opacity="0.681294145998605" transform="matrix(0.7857993381395776,0.6184815277592386,-0.6184815277592386,0.7857993381395776,742.1833442149797,183.03723540316264)" fill="#ff5c58" filter="url(#bbburst-blur-1)"></use><use xlink:href="#bbburst-shape-11" width="10.246880541508487" opacity="0.792947392348704" transform="matrix(0.7333588827641494,0.6798417088344305,-0.6798417088344305,0.7333588827641494,686.4556162667166,11.694936487156554)" fill="none" stroke="#2c2891"></use><use xlink:href="#bbburst-shape-11" width="12.61747799853483" opacity="0.8048326757465866" transform="matrix(0.759024156818275,-0.6510624619545399,0.6510624619545399,0.759024156818275,75.09873994436134,35.85084835160421)" fill="none" stroke="#00a19d"></use><use xlink:href="#bbburst-shape-11" width="17.947324899536707" opacity="0.5971155784390947" transform="matrix(0.8233588546146396,-0.5675210978700869,0.5675210978700869,0.8233588546146396,5.982213168373221,161.76806072306152)" fill="none" stroke="#ffbd9b" filter="url(#bbburst-blur-1)"></use><use xlink:href="#bbburst-shape-11" width="33.029009935642286" opacity="0.1251656395476335" transform="matrix(1.1516904068469334,0.4859106983559276,-0.4859106983559276,1.1516904068469334,299.36794186561394,211.34963696256722)" fill="none" stroke="#00a19d" filter="url(#bbburst-blur-3)"></use><use xlink:href="#bbburst-shape-2" width="10.654271999033575" opacity="0.77864919959156" transform="matrix(0.9953152429162127,-0.09668281759775385,0.09668281759775385,0.9953152429162127,270.33200800716315,-48.38368361870397)" fill="#2c2891"></use><use xlink:href="#bbburst-shape-10" width="27.13469710003209" opacity="0.25210067587788276" transform="matrix(0.9413912696918724,-0.8223639567417363,0.8223639567417363,0.9413912696918724,-126.54418320552529,315.86269761219506)" fill="none" stroke="#ffbd9b" filter="url(#bbburst-blur-3)"></use><use xlink:href="#bbburst-shape-2" width="7.186136646331341" opacity="0.8638618175408386" transform="matrix(0.8594560833217182,0.5112095860224961,-0.5112095860224961,0.8594560833217182,547.2834786598539,83.10871764767649)" fill="#ffbd9b"></use><use xlink:href="#bbburst-shape-11" width="9.338009147423156" opacity="0.8131962086107758" transform="matrix(0.8779508155124146,0.4787508386844729,-0.4787508386844729,0.8779508155124146,508.57886430757935,75.53606481454)" fill="none" stroke="#ffbd9b"></use><use xlink:href="#bbburst-shape-10" width="34.37864895828771" opacity="0.1390976891444745" transform="matrix(1.2349000348245815,-0.1937057149137505,0.1937057149137505,1.2349000348245815,130.6038889261833,-438.4082521551511)" fill="none" stroke="#2c2891" filter="url(#bbburst-blur-3)"></use><use xlink:href="#bbburst-shape-10" width="6.948335307245019" opacity="0.9601563724010894" transform="matrix(0.9214875346353087,-0.3884079344088385,0.3884079344088385,0.9214875346353087,258.0608190554017,39.46764324968569)" fill="none" stroke="#00a19d"></use><use xlink:href="#bbburst-shape-11" width="10.849793854529853" opacity="0.8182970814106564" transform="matrix(0.7540732900634705,-0.6567902809975594,0.6567902809975594,0.7540732900634705,70.72558860926557,154.69605597917223)" fill="none" stroke="#2c2891"></use><use xlink:href="#bbburst-shape-9" width="50.351766228993114" opacity="-0.08343336193042505" transform="matrix(1.7491731869037819,0.05378812338116446,-0.05378812338116446,1.7491731869037819,720.7609317472804,44.6048768404529)" fill="none" stroke="#00a19d" filter="url(#bbburst-blur-4)"></use><use xlink:href="#bbburst-shape-10" width="12.11501333729306" opacity="0.8636713651348514" transform="matrix(0.8440731751196268,0.5362280065825282,-0.5362280065825282,0.8440731751196268,668.3364968650717,76.07793586478164)" fill="none" stroke="#ffa6d5"></use><use xlink:href="#bbburst-shape-10" width="23.502911736793546" opacity="0.5585841344511965" transform="matrix(0.9999331931042565,0.011558950139420368,-0.011558950139420368,0.9999331931042565,379.5884456042438,-198.30153346589748)" fill="none" stroke="#ffa6d5" filter="url(#bbburst-blur-1)"></use><use xlink:href="#bbburst-shape-10" width="24.245750574478638" opacity="0.5791673923991552" transform="matrix(0.8753226075540617,0.4835393807175979,-0.4835393807175979,0.8753226075540617,771.0511151326059,23.37159307748965)" fill="none" stroke="#2c2891" filter="url(#bbburst-blur-1)"></use><use xlink:href="#bbburst-shape-11" width="32.79836427090371" opacity="0.3212325840321293" transform="matrix(1.2476361234352689,0.07683816434178173,-0.07683816434178173,1.2476361234352689,118.20731274452257,-190.1409610434219)" fill="none" stroke="#ff5c58" filter="url(#bbburst-blur-3)"></use><use xlink:href="#bbburst-shape-2" width="25.425580727247997" opacity="0.1895020097937954" transform="matrix(0.978338790893562,0.7780444783127269,-0.7780444783127269,0.978338790893562,708.3877530159189,-365.81137482938703)" fill="#00a19d" filter="url(#bbburst-blur-3)"></use><use xlink:href="#bbburst-shape-2" width="30.38484738752214" opacity="0.47231692680722803" transform="matrix(0.9165041090554741,-0.40002527180720926,0.40002527180720926,0.9165041090554741,388.8228509488476,212.40072688865774)" fill="#2c2891" filter="url(#bbburst-blur-2)"></use><use xlink:href="#bbburst-shape-1" width="26.458115434943537" opacity="0.36698613023830984" transform="matrix(0.9812371838204097,-0.19280453596373587,0.19280453596373587,0.9812371838204097,461.1628727643214,251.46816803257144)" fill="#ff5c58" filter="url(#bbburst-blur-2)"></use><use xlink:href="#bbburst-shape-10" width="32.64750183927154" opacity="0.14774399759135715" transform="matrix(0.8962790573953544,-0.8713115695745667,0.8713115695745667,0.8962790573953544,403.8681987359339,-55.5436132099893)" fill="none" stroke="#ffbd9b" filter="url(#bbburst-blur-3)"></use><use xlink:href="#bbburst-shape-10" width="38.91235829029534" opacity="0.19286972649815837" transform="matrix(1.2007194917938535,-0.34752367117408023,0.34752367117408023,1.2007194917938535,550.7581451470891,-257.566254311813)" fill="none" stroke="#ff5c58" filter="url(#bbburst-blur-3)"></use><use xlink:href="#bbburst-shape-11" width="10.69544627540985" opacity="0.803967745118324" transform="matrix(0.9982993166803251,-0.05829643484464489,0.05829643484464489,0.9982993166803251,322.2742614455986,74.1679016057945)" fill="none" stroke="#2c2891"></use><use xlink:href="#bbburst-shape-2" width="30.547854175765217" opacity="0.3139524163715196" transform="matrix(1.1342655723715624,-0.5253014480587427,0.5253014480587427,1.1342655723715624,-60.36606125203798,156.95020926579048)" fill="#ffbd9b" filter="url(#bbburst-blur-3)"></use><use xlink:href="#bbburst-shape-10" width="15.66354325436523" opacity="0.7024039776369598" transform="matrix(0.9879658165111016,-0.1546723808750364,0.1546723808750364,0.9879658165111016,205.83839368368302,55.21954926637943)" fill="none" stroke="#2c2891" filter="url(#bbburst-blur-1)"></use><use xlink:href="#bbburst-shape-9" width="26.492116805422846" opacity="0.54177687671256" transform="matrix(0.8945167754082004,-0.4470343818022448,0.4470343818022448,0.8945167754082004,127.77568671834766,237.3733079832765)" fill="none" stroke="#ff5c58" filter="url(#bbburst-blur-2)"></use><use xlink:href="#bbburst-shape-9" width="9.536068452833172" opacity="0.8590535480461136" transform="matrix(0.7831778094290259,0.6217978118471891,-0.6217978118471891,0.7831778094290259,617.2568168092289,140.7381571067911)" fill="none" stroke="#ff5c58"></use><use xlink:href="#bbburst-shape-11" width="14.613574871946273" opacity="0.6612661682119375" transform="matrix(0.787883045326772,-0.615824899534447,0.615824899534447,0.787883045326772,121.62762554374052,-60.9688886567146)" fill="none" stroke="#ffa6d5" filter="url(#bbburst-blur-1)"></use><use xlink:href="#bbburst-shape-2" width="14.284030265979617" opacity="0.7523163627118457" transform="matrix(0.9197550352815272,-0.39249289811954124,0.39249289811954124,0.9197550352815272,194.52719399601835,138.186018991507)" fill="#ffbd9b" filter="url(#bbburst-blur-1)"></use><use xlink:href="#bbburst-shape-2" width="33.06638050425636" opacity="0.3587868734559828" transform="matrix(0.7542720086684284,0.6565620587113562,-0.6565620587113562,0.7542720086684284,909.7298317581949,-38.54178702292029)" fill="#2c2891" filter="url(#bbburst-blur-2)"></use><use xlink:href="#bbburst-shape-10" width="34.650977701622566" opacity="0.13302263224445188" transform="matrix(1.2464496163104475,-0.09414538756380164,0.09414538756380164,1.2464496163104475,-23.24173175650283,-237.38254566380414)" fill="none" stroke="#ff5c58" filter="url(#bbburst-blur-3)"></use><use xlink:href="#bbburst-shape-2" width="9.22181074582617" opacity="0.9043004902935332" transform="matrix(0.7094894938948066,-0.7047160123431929,0.7047160123431929,0.7094894938948066,136.0533051176871,81.97617313577382)" fill="#00a19d"></use><use xlink:href="#bbburst-shape-10" width="38.640551689944616" opacity="0.21864706176348947" transform="matrix(1.1413358123814323,0.5097573573531,-0.5097573573531,1.1413358123814323,276.35748498646797,107.69133266846171)" fill="none" stroke="#ffa6d5" filter="url(#bbburst-blur-3)"></use><use xlink:href="#bbburst-shape-9" width="21.894449928142308" opacity="0.5342925998929959" transform="matrix(0.8268544316488448,-0.5624159927159487,0.5624159927159487,0.8268544316488448,183.48647474292406,284.12209749823626)" fill="none" stroke="#ffa6d5" filter="url(#bbburst-blur-2)"></use><use xlink:href="#bbburst-shape-9" width="30.474732818759094" opacity="0.4062551078615706" transform="matrix(0.9643056424608373,0.2647916688987623,-0.2647916688987623,0.9643056424608373,259.39712301707834,-122.69305936575716)" fill="none" stroke="#ffa6d5" filter="url(#bbburst-blur-2)"></use><use xlink:href="#bbburst-shape-11" width="20.807821645532368" opacity="0.5046260289403294" transform="matrix(0.7253315751276309,0.6883996703390189,-0.6883996703390189,0.7253315751276309,813.5215003676683,-66.35457162625764)" fill="none" stroke="#ffa6d5" filter="url(#bbburst-blur-2)"></use><use xlink:href="#bbburst-shape-11" width="21.191970253548366" opacity="0.481881931339875" transform="matrix(0.8312527924635821,-0.5558945898472991,0.5558945898472991,0.8312527924635821,392.0544250530704,6.339088887826506)" fill="none" stroke="#00a19d" filter="url(#bbburst-blur-2)"></use><use xlink:href="#bbburst-shape-11" width="43.17714282233371" opacity="-0.10049359278422676" transform="matrix(1.4254991333945135,-1.015111925204059,1.015111925204059,1.4254991333945135,-388.5810344960903,-498.2278810050094)" fill="none" stroke="#2c2891" filter="url(#bbburst-blur-4)"></use><use xlink:href="#bbburst-shape-10" width="16.206832886095103" opacity="0.652998173117487" transform="matrix(0.8595734491596015,0.5110122165857347,-0.5110122165857347,0.8595734491596015,458.8444756947228,-19.904458778918297)" fill="none" stroke="#2c2891" filter="url(#bbburst-blur-1)"></use><use xlink:href="#bbburst-shape-11" width="30.167401507763945" opacity="0.262995519517353" transform="matrix(1.0969241938729497,0.5993807745466815,-0.5993807745466815,1.0969241938729497,622.6778026777918,283.4141394416953)" fill="none" stroke="#ff5c58" filter="url(#bbburst-blur-3)"></use><use xlink:href="#bbburst-shape-10" width="30.37324224450859" opacity="0.43625913515619275" transform="matrix(0.8648690267667375,-0.5019975762287665,0.5019975762287665,0.8648690267667375,151.11255441784817,312.9397912030475)" fill="none" stroke="#ffbd9b" filter="url(#bbburst-blur-2)"></use><use xlink:href="#bbburst-shape-11" width="23.80930305984176" opacity="0.3194770943058338" transform="matrix(1.2499998464800963,-0.0006195157264433926,0.0006195157264433926,1.2499998464800963,462.05489275717576,-396.725110523935)" fill="none" stroke="#ffa6d5" filter="url(#bbburst-blur-3)"></use><use xlink:href="#bbburst-shape-2" width="27.149461445272973" opacity="0.13022465543188344" transform="matrix(0.9002306314354186,-0.8672282342182982,0.8672282342182982,0.9002306314354186,400.2616407796135,206.7809551505917)" fill="#2c2891" filter="url(#bbburst-blur-3)"></use><use xlink:href="#bbburst-shape-2" width="13.688894058917782" opacity="0.7588857172586373" transform="matrix(0.8026551470523879,-0.5964433878502716,0.5964433878502716,0.8026551470523879,248.0880234977079,25.754380454255568)" fill="#ffa6d5" filter="url(#bbburst-blur-1)"></use><use xlink:href="#bbburst-shape-10" width="12.51790396251276" opacity="0.7198158442025444" transform="matrix(0.8813807128405865,0.4724066458387516,-0.4724066458387516,0.8813807128405865,505.1467350728812,-54.33260124973219)" fill="none" stroke="#00a19d" filter="url(#bbburst-blur-1)"></use><use xlink:href="#bbburst-shape-11" width="15.324472463047842" opacity="0.6922831082616339" transform="matrix(0.9934865819798298,0.11394916158548492,-0.11394916158548492,0.9934865819798298,299.5401215738402,-0.9820600916796138)" fill="none" stroke="#2c2891" filter="url(#bbburst-blur-1)"></use><use xlink:href="#bbburst-shape-11" width="10.86916136799141" opacity="0.8880139560068799" transform="matrix(0.9535377351942169,-0.30127360913409507,0.30127360913409507,0.9535377351942169,271.81357928916367,-30.245343312108957)" fill="none" stroke="#ffbd9b"></use><use xlink:href="#bbburst-shape-2" width="11.419656156979872" opacity="0.8371244418682235" transform="matrix(0.7344480823162696,-0.6786648763432171,0.6786648763432171,0.7344480823162696,177.9992847049587,60.16851125752112)" fill="#ffa6d5"></use><use xlink:href="#bbburst-shape-9" width="12.863935937716326" opacity="0.7315236206653725" transform="matrix(0.8456507936831927,-0.5337365784195293,0.5337365784195293,0.8456507936831927,256.57239063389636,-29.176523345336932)" fill="none" stroke="#00a19d" filter="url(#bbburst-blur-1)"></use><use xlink:href="#bbburst-shape-11" width="16.003362245791212" opacity="0.6310083074355692" transform="matrix(0.9487070581528664,0.31615647678156755,-0.31615647678156755,0.9487070581528664,356.7546749097089,53.40648965012019)" fill="none" stroke="#ff5c58" filter="url(#bbburst-blur-1)"></use><use xlink:href="#bbburst-shape-2" width="19.803570679403187" opacity="0.6130677963803246" transform="matrix(0.9997923120988857,0.02037971216588232,-0.02037971216588232,0.9997923120988857,489.8412962679305,147.97564699114417)" fill="#ffa6d5" filter="url(#bbburst-blur-1)"></use><use xlink:href="#bbburst-shape-10" width="30.713632145637263" opacity="0.3135623363893356" transform="matrix(1.1402531203236093,-0.5121746006903041,0.5121746006903041,1.1402531203236093,146.66280413487428,-355.5777254099179)" fill="none" stroke="#ffbd9b" filter="url(#bbburst-blur-3)"></use><use xlink:href="#bbburst-shape-10" width="10.013708712884318" opacity="0.8674629243646477" transform="matrix(0.8043661753969494,-0.5941338703333483,0.5941338703333483,0.8043661753969494,112.90579863599581,42.566123106249506)" fill="none" stroke="#ff5c58"></use><use xlink:href="#bbburst-shape-10" width="32.19184886079534" opacity="0.02198921635602269" transform="matrix(1.268648690451163,1.2054171478025977,-1.2054171478025977,1.268648690451163,1223.3548106656194,-377.72414300020444)" fill="none" stroke="#2c2891" filter="url(#bbburst-blur-4)"></use><use xlink:href="#bbburst-shape-10" width="36.596321526775554" opacity="0.22495268634251098" transform="matrix(1.1718859668646988,0.4349520440986454,-0.4349520440986454,1.1718859668646988,687.4100545807845,244.92448175204714)" fill="none" stroke="#ffbd9b" filter="url(#bbburst-blur-3)"></use><use xlink:href="#bbburst-shape-10" width="8.313850298758235" opacity="0.9533561698002349" transform="matrix(0.9685950662343328,-0.2486435152311606,0.2486435152311606,0.9685950662343328,275.6669520739243,16.019749326928206)" fill="none" stroke="#ffa6d5"></use><use xlink:href="#bbburst-shape-1" width="15.982049423619728" opacity="0.760967200933036" transform="matrix(0.7074312145447491,-0.7067821989041186,0.7067821989041186,0.7074312145447491,5.448241403396821,139.7680978926469)" fill="#ff5c58" filter="url(#bbburst-blur-1)"></use><use xlink:href="#bbburst-shape-11" width="7.995521849474721" opacity="0.9905820824252569" transform="matrix(0.9452504122959265,-0.3263459177841525,0.3263459177841525,0.9452504122959265,266.22881780749606,18.908857497847634)" fill="none" stroke="#00a19d"></use><use xlink:href="#bbburst-shape-2" width="12.928519062455685" opacity="0.7580381818235084" transform="matrix(0.789585527808698,-0.6136405252874519,0.6136405252874519,0.789585527808698,58.07039565477854,147.35240040611387)" fill="#ffa6d5" filter="url(#bbburst-blur-1)"></use><use xlink:href="#bbburst-shape-11" width="9.813151233350565" opacity="0.809322702222945" transform="matrix(0.9425974323529176,-0.33393125119055095,0.33393125119055095,0.9425974323529176,246.08266353247672,108.84065948472914)" fill="none" stroke="#00a19d"></use><use xlink:href="#bbburst-shape-2" width="34.223236785963664" opacity="0.14184930012069608" transform="matrix(1.2386277479866885,-0.1682299079159958,0.1682299079159958,1.2386277479866885,-53.001375817295916,34.934797453036765)" fill="#ffa6d5" filter="url(#bbburst-blur-3)"></use><use xlink:href="#bbburst-shape-1" width="27.858799505666994" opacity="0.3886045504362369" transform="matrix(0.9893669853700794,0.1454406004515972,-0.1454406004515972,0.9893669853700794,500.41454733134674,271.62616974321566)" fill="#ffa6d5" filter="url(#bbburst-blur-2)"></use><use xlink:href="#bbburst-shape-10" width="5.4358297497410675" opacity="0.9566811146329595" transform="matrix(0.8290028867150115,-0.5592443239034061,0.5592443239034061,0.8290028867150115,159.55925859727213,56.8788601070579)" fill="none" stroke="#00a19d"></use><use xlink:href="#bbburst-shape-11" width="6.500747722763034" opacity="0.8975217499149974" transform="matrix(0.9034789600846682,0.4286324400746244,-0.4286324400746244,0.9034789600846682,544.8463232799596,-2.4160468824979375)" fill="none" stroke="#00a19d"></use><use xlink:href="#bbburst-shape-10" width="12.110587198821657" opacity="0.7026866843159738" transform="matrix(0.9028905999087303,-0.42987040442027774,0.42987040442027774,0.9028905999087303,167.9583560806755,-80.68435099255424)" fill="none" stroke="#2c2891" filter="url(#bbburst-blur-1)"></use><use xlink:href="#bbburst-shape-9" width="23.263528653337413" opacity="0.48085316667550426" transform="matrix(0.9831357623581901,-0.18287720681479216,0.18287720681479216,0.9831357623581901,148.49208081144138,-154.75383647385212)" fill="none" stroke="#ffa6d5" filter="url(#bbburst-blur-2)"></use><use xlink:href="#bbburst-shape-10" width="12.902114847345489" opacity="0.7849273674162811" transform="matrix(0.9269799390107246,-0.3751109071616997,0.3751109071616997,0.9269799390107246,205.8805080178539,-57.34204796986188)" fill="none" stroke="#ffa6d5"></use><use xlink:href="#bbburst-shape-10" width="34.28731201510361" opacity="0.45056335058287467" transform="matrix(0.754704036634417,-0.6560654061049985,0.6560654061049985,0.754704036634417,344.0321015772615,223.36547596619465)" fill="none" stroke="#2c2891" filter="url(#bbburst-blur-2)"></use><use xlink:href="#bbburst-shape-10" width="10.995284172720044" opacity="0.7239690832365855" transform="matrix(0.9564339430034319,0.2919488185811139,-0.2919488185811139,0.9564339430034319,539.5533693566978,136.83091116901932)" fill="none" stroke="#00a19d" filter="url(#bbburst-blur-1)"></use><use xlink:href="#bbburst-shape-1" width="19.593530055444234" opacity="0.6669637466091917" transform="matrix(0.9869492988477098,0.16103130597499982,-0.16103130597499982,0.9869492988477098,339.4053263695224,99.36467695022236)" fill="#00a19d" filter="url(#bbburst-blur-1)"></use><use xlink:href="#bbburst-shape-9" width="25.546982426471036" opacity="0.5817403426267861" transform="matrix(0.9347440747217023,0.35532170602521396,-0.35532170602521396,0.9347440747217023,410.5297504221992,166.63582321092753)" fill="none" stroke="#ff5c58" filter="url(#bbburst-blur-1)"></use><use xlink:href="#bbburst-shape-1" width="27.586159622177057" opacity="0.4077877597218852" transform="matrix(0.8256947560263079,0.5641171597023581,-0.5641171597023581,0.8256947560263079,503.046574969425,304.1612415207992)" fill="#ffa6d5" filter="url(#bbburst-blur-2)"></use><use xlink:href="#bbburst-shape-9" width="6.8286277250441705" opacity="0.8825243696185872" transform="matrix(0.781965072711631,-0.6233222481663026,0.6233222481663026,0.781965072711631,111.64364582079494,127.70955015292208)" fill="none" stroke="#2c2891"></use><use xlink:href="#bbburst-shape-9" width="20.21565319000197" opacity="0.610950742550493" transform="matrix(0.8300240780335703,-0.5577275588354244,0.5577275588354244,0.8300240780335703,-2.255735266649765,34.62855197128323)" fill="none" stroke="#2c2891" filter="url(#bbburst-blur-1)"></use><use xlink:href="#bbburst-shape-11" width="27.702691730637895" opacity="0.5894388194065832" transform="matrix(0.967420181191263,0.25317620943497765,-0.25317620943497765,0.967420181191263,411.2799375206473,-158.908175584954)" fill="none" stroke="#ffa6d5" filter="url(#bbburst-blur-1)"></use><use xlink:href="#bbburst-shape-10" width="15.453722757633045" opacity="0.7440632328910834" transform="matrix(0.973025234190127,0.2306987074719939,-0.2306987074719939,0.973025234190127,599.0103990115344,23.55291835522678)" fill="none" stroke="#00a19d" filter="url(#bbburst-blur-1)"></use><use xlink:href="#bbburst-shape-1" width="41.022395915757514" opacity="0.19330242462614544" transform="matrix(0.9523856493914138,-0.8096058144759678,0.8096058144759678,0.9523856493914138,291.5131648109832,312.5158517589242)" fill="#ffbd9b" filter="url(#bbburst-blur-3)"></use><use xlink:href="#bbburst-shape-10" width="27.05987107400921" opacity="0.6429097866755924" transform="matrix(0.9378024511177273,0.3471693573424687,-0.3471693573424687,0.9378024511177273,672.748424687926,-45.68899259978042)" fill="none" stroke="#ffbd9b" filter="url(#bbburst-blur-1)"></use><use xlink:href="#bbburst-shape-10" width="29.150942171726992" opacity="0.3032677493215713" transform="matrix(1.068882161860554,0.6480670675603789,-0.6480670675603789,1.068882161860554,942.5156793857113,57.75621116866216)" fill="none" stroke="#2c2891" filter="url(#bbburst-blur-3)"></use><use xlink:href="#bbburst-shape-1" width="26.322179076807757" opacity="0.1631665090708727" transform="matrix(1.2498498122309183,0.01937645133502474,-0.01937645133502474,1.2498498122309183,302.12610003731066,-466.01687220417017)" fill="#2c2891" filter="url(#bbburst-blur-3)"></use><use xlink:href="#bbburst-shape-9" width="21.42197582451774" opacity="0.46586517206127775" transform="matrix(0.8667862341353181,0.4986798816009261,-0.4986798816009261,0.8667862341353181,532.3197198768245,-185.45381920904686)" fill="none" stroke="#2c2891" filter="url(#bbburst-blur-2)"></use><use xlink:href="#bbburst-shape-10" width="22.957640062111103" opacity="0.48553994768655895" transform="matrix(0.9994802872895392,0.03223593211961288,-0.03223593211961288,0.9994802872895392,628.9759800933195,42.434549650930876)" fill="none" stroke="#2c2891" filter="url(#bbburst-blur-2)"></use><use xlink:href="#bbburst-shape-11" width="23.338566171821988" opacity="0.6448632298607915" transform="matrix(0.760848490874757,-0.6489295600707405,0.6489295600707405,0.760848490874757,246.71436392402808,-7.593219597935331)" fill="none" stroke="#00a19d" filter="url(#bbburst-blur-1)"></use><use xlink:href="#bbburst-shape-2" width="31.651489731737527" opacity="0.4366573858340046" transform="matrix(0.7643565652477107,-0.6447937973978365,0.6447937973978365,0.7643565652477107,246.65827365899503,-120.59128028799486)" fill="#ffa6d5" filter="url(#bbburst-blur-2)"></use><use xlink:href="#bbburst-shape-10" width="32.7228464296903" opacity="0.19073045838645863" transform="matrix(0.9689024792231207,-0.7897645128487922,0.7897645128487922,0.9689024792231207,431.0956337491896,56.30701515648258)" fill="none" stroke="#00a19d" filter="url(#bbburst-blur-3)"></use><use xlink:href="#bbburst-shape-10" width="31.451912323651914" opacity="0.42774604030697283" transform="matrix(0.8987798883617524,-0.43840017367290807,0.43840017367290807,0.8987798883617524,49.00098117040983,247.9560094801369)" fill="none" stroke="#2c2891" filter="url(#bbburst-blur-2)"></use><use xlink:href="#bbburst-shape-10" width="32.02087412599626" opacity="0.032341424702619026" transform="matrix(1.7413885109642862,-0.17339565704361345,0.17339565704361345,1.7413885109642862,-59.17226975870899,-51.66853295500232)" fill="none" stroke="#ffbd9b" filter="url(#bbburst-blur-4)"></use><use xlink:href="#bbburst-shape-1" width="15.263468576527817" opacity="0.70857080755234" transform="matrix(0.9714596355874295,0.2372049249580174,-0.2372049249580174,0.9714596355874295,383.1223643777295,-69.81984318761124)" fill="#ffa6d5" filter="url(#bbburst-blur-1)"></use><use xlink:href="#bbburst-shape-1" width="29.465455127275114" opacity="0.22631656361825458" transform="matrix(1.0885282867427293,0.6144966793734028,-0.6144966793734028,1.0885282867427293,332.50739073816356,-225.71702795322474)" fill="#00a19d" filter="url(#bbburst-blur-3)"></use><use xlink:href="#bbburst-shape-2" width="17.419780002991175" opacity="0.6629786216429243" transform="matrix(0.8377201068168995,-0.5460998284514312,0.5460998284514312,0.8377201068168995,110.21569792974799,207.1453938997492)" fill="#00a19d" filter="url(#bbburst-blur-1)"></use><use xlink:href="#bbburst-shape-9" width="7.835040216404713" opacity="0.945684698668033" transform="matrix(0.7387104814802924,-0.6740228664898206,0.6740228664898206,0.7387104814802924,132.43111606516663,83.1859915176102)" fill="none" stroke="#2c2891"></use><use xlink:href="#bbburst-shape-1" width="16.04692560235906" opacity="0.743140432203971" transform="matrix(0.9995427828566391,0.030236157811561488,-0.030236157811561488,0.9995427828566391,399.31462004299834,-115.52780597832032)" fill="#ffa6d5" filter="url(#bbburst-blur-1)"></use><use xlink:href="#bbburst-shape-11" width="19.34487240299388" opacity="0.6960834703591855" transform="matrix(0.9984611593967461,0.05545550627399988,-0.05545550627399988,0.9984611593967461,535.6307850802356,59.430939617184436)" fill="none" stroke="#2c2891" filter="url(#bbburst-blur-1)"></use><use xlink:href="#bbburst-shape-9" width="31.316148312932597" opacity="0.4602072870446752" transform="matrix(0.926672175473074,-0.37587056176827727,0.37587056176827727,0.926672175473074,110.99325778588823,-173.81031546952278)" fill="none" stroke="#00a19d" filter="url(#bbburst-blur-2)"></use><use xlink:href="#bbburst-shape-11" width="9.50872713253191" opacity="0.8706659137926441" transform="matrix(0.9884199298086175,-0.15174334369957626,0.15174334369957626,0.9884199298086175,331.3276891436147,63.341491460020734)" fill="none" stroke="#ff5c58"></use><use xlink:href="#bbburst-shape-11" width="9.17746415914582" opacity="0.8298766130933803" transform="matrix(0.9956424174427309,0.09325329264318193,-0.09325329264318193,0.9956424174427309,356.19812195044756,2.4367739622989006)" fill="none" stroke="#2c2891"></use><use xlink:href="#bbburst-shape-9" width="19.557047214468362" opacity="0.5886806719336892" transform="matrix(0.9992460189440129,0.03882516741163421,-0.03882516741163421,0.9992460189440129,578.804400444615,65.49196046169925)" fill="none" stroke="#00a19d" filter="url(#bbburst-blur-1)"></use><use xlink:href="#bbburst-shape-11" width="11.385954587288778" opacity="0.8514642095334721" transform="matrix(0.9997102996053828,0.024069002117157384,-0.024069002117157384,0.9997102996053828,374.204324126152,-60.030473093499324)" fill="none" stroke="#ffa6d5"></use><use xlink:href="#bbburst-shape-2" width="18.7435990837457" opacity="0.7158721021308878" transform="matrix(0.9365992954976297,-0.3504022826314688,0.3504022826314688,0.9365992954976297,238.9617244964171,155.9364537022372)" fill="#00a19d" filter="url(#bbburst-blur-1)"></use><use xlink:href="#bbburst-shape-9" width="26.915080483088406" opacity="0.054034230023704444" transform="matrix(1.573553470428644,-0.7657868343749263,0.7657868343749263,1.573553470428644,295.53808774240724,143.09485008090883)" fill="none" stroke="#00a19d" filter="url(#bbburst-blur-4)"></use><use xlink:href="#bbburst-shape-2" width="10.940263900713632" opacity="0.9027310904864734" transform="matrix(0.9975867470991774,-0.06943113143311029,0.06943113143311029,0.9975867470991774,410.4889324012105,-0.803915882589763)" fill="#ffa6d5"></use><use xlink:href="#bbburst-shape-11" width="24.665983168467093" opacity="0.6118518036979852" transform="matrix(0.9934222526935838,0.11450863658783739,-0.11450863658783739,0.9934222526935838,315.93504070195854,-128.1947027348856)" fill="none" stroke="#00a19d" filter="url(#bbburst-blur-1)"></use><use xlink:href="#bbburst-shape-10" width="8.978321897389055" opacity="0.873998228414573" transform="matrix(0.9999436301732867,-0.010617743445255063,0.010617743445255063,0.9999436301732867,336.3666539880889,-14.116480412794658)" fill="none" stroke="#2c2891"></use><use xlink:href="#bbburst-shape-10" width="26.53098605584686" opacity="0.18073826190258946" transform="matrix(1.2466872827138304,-0.09094404389296556,0.09094404389296556,1.2466872827138304,-17.952252264977744,-149.0837768442994)" fill="none" stroke="#ffbd9b" filter="url(#bbburst-blur-3)"></use><use xlink:href="#bbburst-shape-11" width="11.43685528449829" opacity="0.7918735487752786" transform="matrix(0.9277117235100225,-0.37329741234311226,0.37329741234311226,0.9277117235100225,259.6122316811312,123.47337610067643)" fill="none" stroke="#ffa6d5"></use><use xlink:href="#bbburst-shape-2" width="39.33185285013103" opacity="-0.09051485049935648" transform="matrix(1.3532688378024367,-1.1095780516182006,1.1095780516182006,1.3532688378024367,269.2308603512634,-473.65345921021594)" fill="#ffbd9b" filter="url(#bbburst-blur-4)"></use></svg>